<svg width="45" height="45" viewBox="0 0 45 45" fill="none" xmlns="http://www.w3.org/2000/svg">
<path d="M44.154 24.2121C44.154 24.7644 43.7063 25.2121 43.154 25.2121H25.2308V43.1211C25.2308 43.6734 24.7831 44.1211 24.2308 44.1211H19.9231C19.3708 44.1211 18.9231 43.6734 18.9231 43.1211V25.2121H0.999998C0.447714 25.2121 0 24.7644 0 24.2121V19.9091C0 19.3568 0.447715 18.9091 1 18.9091H18.9231V1C18.9231 0.447715 19.3708 0 19.9231 0H24.2308C24.7831 0 25.2308 0.447715 25.2308 1V18.9091H43.154C43.7063 18.9091 44.154 19.3568 44.154 19.9091V24.2121Z" fill="#979899"/>
</svg>
